{
	"asset":{
		"generator":"Khronos glTF Blender I/O v5.0.21",
		"version":"2.0"
	},
	"scene":0,
	"scenes":[
		{
			"name":"Scene",
			"nodes":[
				0
			]
		}
	],
	"nodes":[
		{
			"mesh":0,
			"name":"Earth_Earth_Diffuse_6K_0",
			"rotation":[
				-0.5000001788139343,
				0.49999988079071045,
				0.4999999403953552,
				0.5000001788139343
			],
			"scale":[
				0.0756455808877945,
				0.07566117495298386,
				0.07563865184783936
			],
			"translation":[
				0,
				0,
				5.05013370513916
			]
		}
	],
	"materials":[
		{
			"doubleSided":true,
			"name":"Earth_Diffuse_6K",
			"pbrMetallicRoughness":{
				"baseColorFactor":[
					0.800000011920929,
					0.800000011920929,
					0.800000011920929,
					1
				],
				"metallicFactor":0,
				"roughnessFactor":0.8211145401000977
			}
		}
	],
	"meshes":[
		{
			"name":"Earth_Earth_Diffuse_6K_0",
			"primitives":[
				{
					"attributes":{
						"POSITION":0,
						"NORMAL":1,
						"TEXCOORD_0":2
					},
					"indices":3,
					"material":0
				}
			]
		}
	],
	"accessors":[
		{
			"bufferView":0,
			"componentType":5126,
			"count":8411,
			"max":[
				13.21905517578125,
				13.216817855834961,
				13.220754623413086
			],
			"min":[
				-13.22003173828125,
				-13.216816902160645,
				-13.220752716064453
			],
			"type":"VEC3"
		},
		{
			"bufferView":1,
			"componentType":5126,
			"count":8411,
			"type":"VEC3"
		},
		{
			"bufferView":2,
			"componentType":5126,
			"count":8411,
			"type":"VEC2"
		},
		{
			"bufferView":3,
			"componentType":5123,
			"count":48384,
			"type":"SCALAR"
		}
	],
	"bufferViews":[
		{
			"buffer":0,
			"byteLength":100932,
			"byteOffset":0,
			"target":34962
		},
		{
			"buffer":0,
			"byteLength":100932,
			"byteOffset":100932,
			"target":34962
		},
		{
			"buffer":0,
			"byteLength":67288,
			"byteOffset":201864,
			"target":34962
		},
		{
			"buffer":0,
			"byteLength":96768,
			"byteOffset":269152,
			"target":34963
		}
	],
	"buffers":[
		{
			"byteLength":365920,
			"uri":"earth-6k.bin"
		}
	]
}
