{
	"asset":{
		"generator":"Khronos glTF Blender I/O v5.0.21",
		"version":"2.0"
	},
	"scene":0,
	"scenes":[
		{
			"name":"Scene",
			"nodes":[
				0
			]
		}
	],
	"nodes":[
		{
			"mesh":0,
			"name":"Clouds_Clouds_0",
			"rotation":[
				-0.7415693402290344,
				-0.6174275875091553,
				0.08255846053361893,
				0.24908263981342316
			],
			"scale":[
				3.176149845123291,
				3.1761507987976074,
				3.17615008354187
			],
			"translation":[
				-1.2635139682970475e-05,
				-2.8180818389955675e-06,
				5.052308082580566
			]
		}
	],
	"materials":[
		{
			"doubleSided":true,
			"emissiveFactor":[
				3.187382753822021e-05,
				0.00268667028285563,
				0.02457478642463684
			],
			"name":"Clouds",
			"normalTexture":{
				"index":0
			},
			"pbrMetallicRoughness":{
				"baseColorTexture":{
					"index":1
				},
				"metallicFactor":0,
				"roughnessFactor":0.8040408492088318
			}
		}
	],
	"meshes":[
		{
			"name":"Clouds_Clouds_0",
			"primitives":[
				{
					"attributes":{
						"POSITION":0,
						"NORMAL":1,
						"TEXCOORD_0":2
					},
					"indices":3,
					"material":0
				}
			]
		}
	],
	"textures":[
		{
			"sampler":0,
			"source":0
		},
		{
			"sampler":0,
			"source":1
		}
	],
	"images":[
		{
			"mimeType":"image/png",
			"name":"Image_1",
			"uri":"6kEarth/Image_1.png"
		},
		{
			"mimeType":"image/jpeg",
			"name":"Image_0",
			"uri":"6kEarth/Image_0.jpg"
		}
	],
	"accessors":[
		{
			"bufferView":0,
			"componentType":5126,
			"count":8410,
			"max":[
				0.3183099329471588,
				0.31830984354019165,
				0.31830915808677673
			],
			"min":[
				-0.3183099329471588,
				-0.3183099031448364,
				-0.3183106482028961
			],
			"type":"VEC3"
		},
		{
			"bufferView":1,
			"componentType":5126,
			"count":8410,
			"type":"VEC3"
		},
		{
			"bufferView":2,
			"componentType":5126,
			"count":8410,
			"type":"VEC2"
		},
		{
			"bufferView":3,
			"componentType":5123,
			"count":48384,
			"type":"SCALAR"
		}
	],
	"bufferViews":[
		{
			"buffer":0,
			"byteLength":100920,
			"byteOffset":0,
			"target":34962
		},
		{
			"buffer":0,
			"byteLength":100920,
			"byteOffset":100920,
			"target":34962
		},
		{
			"buffer":0,
			"byteLength":67280,
			"byteOffset":201840,
			"target":34962
		},
		{
			"buffer":0,
			"byteLength":96768,
			"byteOffset":269120,
			"target":34963
		}
	],
	"samplers":[
		{
			"magFilter":9729,
			"minFilter":9987
		}
	],
	"buffers":[
		{
			"byteLength":365888,
			"uri":"earth-cloud.bin"
		}
	]
}
