<svg xmlns="http://www.w3.org/2000/svg" width="1200" height="630" viewBox="0 0 1200 630" role="img">


  <rect width="1200" height="630" fill="#07101f"/>
  <radialGradient id="cardGlow" cx="72%" cy="40%" r="58%"><stop offset="0" stop-color="#153c70"/><stop offset="1" stop-color="#07101f"/></radialGradient>
  <rect width="1200" height="630" fill="url(#cardGlow)" opacity="0.75"/>
  <path d="M0 500C230 415 344 570 590 468s370-282 610-202v364H0z" fill="#0bbbd4" opacity="0.13"/>
  <path d="M0 560C255 480 405 606 660 516s330-190 540-138v252H0z" fill="#8bd73f" opacity="0.10"/>

  <g transform="translate(72 70)">
    <text x="0" y="102" fill="#20d8ff" font-size="78" style="font-family: 'Space Mono', Consolas, monospace; font-weight: 700; letter-spacing: 0;">topic</text>
    
    <defs>
      <radialGradient id="ocean-world" cx="34%" cy="28%" r="68%">
        <stop offset="0" stop-color="#31c5ff"/>
        <stop offset="0.52" stop-color="#1276d8"/>
        <stop offset="1" stop-color="#062044"/>
      </radialGradient>
      <filter id="softGlow" x="-40%" y="-40%" width="180%" height="180%">
        <feGaussianBlur stdDeviation="10" result="blur"/>
        <feMerge><feMergeNode in="blur"/><feMergeNode in="SourceGraphic"/></feMerge>
      </filter>
    </defs>
    <g transform="translate(367 82) scale(0.4470588235294118) translate(-256 -256)">
      <circle cx="256" cy="256" r="178" fill="#00d5ff" opacity="0.18" filter="url(#softGlow)"/>
      <circle cx="256" cy="256" r="170" fill="url(#ocean-world)" stroke="#7de7ff" stroke-width="8"/>
      <g transform="rotate(0 256 256)">
  <g class="continents" fill="#8bd73f">
    <path d="M212 152c-22-24-62-20-82 2-18 20-16 50 8 66 17 12 41 8 49 30 7 21-15 43 5 58 18 14 50-1 62-20 15-24 2-45 18-63 13-15 35-12 41-33 6-19-10-31-26-35-24-6-49 12-75-5z"/>
    <path d="M322 150c28 10 50 31 60 59 8 23-1 50-20 62-17 10-34-2-47 12-14 15-6 42-28 53-20 10-45-6-52-29-8-25 7-41 25-53 20-13 8-35 25-54 11-13 26-8 37-50z"/>
    <path d="M150 316c19-1 34 13 36 31 2 19-14 35-35 35-23 0-44-18-42-37 2-17 18-28 41-29z"/>
  </g></g>
      <ellipse cx="256" cy="256" rx="190" ry="54" fill="none" stroke="rgba(255,255,255,0.38)" stroke-width="7" transform="rotate(-18 256 256)"/>
      <path d="M154 145c74-34 176-18 217 54" fill="none" stroke="#fff" stroke-width="10" stroke-linecap="round" opacity="0.28"/>
      
    </g>
    <text x="452" y="102" fill="#e9fbff" font-size="78" style="font-family: 'Space Mono', Consolas, monospace; font-weight: 700; letter-spacing: 0;">earth</text>
    <text x="4" y="214" fill="#ffffff" font-size="54" style="font-family: 'Space Mono', Consolas, monospace; font-weight: 700; letter-spacing: 0;">Global Intelligence Dashboard</text>
    <text x="6" y="284" fill="#b9c8da" font-size="30" style="font-family: Inter, Segoe UI, Arial, sans-serif;">Interactive Earth intelligence for climate, regional signals,</text>
    <text x="6" y="326" fill="#b9c8da" font-size="30" style="font-family: Inter, Segoe UI, Arial, sans-serif;">space context, Fever scenarios, and AI-assisted topic research.</text>
    <g transform="translate(0 405)" fill="none" stroke="#00d5ff" stroke-width="2">
      <rect x="0" y="0" width="190" height="48" rx="8" fill="#0f2337"/><text x="24" y="32" fill="#7de7ff" font-size="22" style="font-family: 'Space Mono', Consolas, monospace; font-weight: 700; letter-spacing: 0;">WORLD</text>
      <rect x="214" y="0" width="190" height="48" rx="8" fill="#2a1f22" stroke="#ff675f"/><text x="238" y="32" fill="#ffcf5a" font-size="22" style="font-family: 'Space Mono', Consolas, monospace; font-weight: 700; letter-spacing: 0;">FEVER</text>
      <rect x="428" y="0" width="250" height="48" rx="8" fill="#10291f" stroke="#8bd73f"/><text x="452" y="32" fill="#9cff74" font-size="22" style="font-family: 'Space Mono', Consolas, monospace; font-weight: 700; letter-spacing: 0;">REGIONAL DATA</text>
    </g>
  </g>
</svg>
