{
  "accessors": [
    {
      "bufferView": 2,
      "componentType": 5126,
      "count": 8618,
      "max": [
        0.9872313737869263,
        0.997577428817749,
        0.9872314929962158
      ],
      "min": [
        -0.9872310161590576,
        -0.997577428817749,
        -0.9872310161590576
      ],
      "type": "VEC3"
    },
    {
      "bufferView": 2,
      "byteOffset": 103416,
      "componentType": 5126,
      "count": 8618,
      "max": [
        1.0,
        1.0,
        1.0
      ],
      "min": [
        -1.0,
        -1.0,
        -1.0
      ],
      "type": "VEC3"
    },
    {
      "bufferView": 1,
      "componentType": 5126,
      "count": 8618,
      "max": [
        1.0000003576278687,
        1.0
      ],
      "min": [
        0.0,
        -1.1920928955078125e-07
      ],
      "type": "VEC2"
    },
    {
      "bufferView": 0,
      "componentType": 5125,
      "count": 47616,
      "type": "SCALAR"
    },
    {
      "bufferView": 2,
      "byteOffset": 206832,
      "componentType": 5126,
      "count": 8618,
      "max": [
        0.9872313737869263,
        0.997577428817749,
        0.9872314929962158
      ],
      "min": [
        -0.9872310161590576,
        -0.997577428817749,
        -0.9872310161590576
      ],
      "type": "VEC3"
    },
    {
      "bufferView": 2,
      "byteOffset": 310248,
      "componentType": 5126,
      "count": 8618,
      "max": [
        1.0,
        1.0,
        1.0
      ],
      "min": [
        -1.0,
        -1.0,
        -1.0
      ],
      "type": "VEC3"
    },
    {
      "bufferView": 3,
      "componentType": 5126,
      "count": 8618,
      "max": [
        1.0,
        0.20179447531700134,
        1.0,
        -1.0
      ],
      "min": [
        -1.0,
        -0.2017945647239685,
        -1.0,
        -1.0
      ],
      "type": "VEC4"
    },
    {
      "bufferView": 1,
      "byteOffset": 68944,
      "componentType": 5126,
      "count": 8618,
      "max": [
        1.0000003576278687,
        1.0
      ],
      "min": [
        0.0,
        -1.1920928955078125e-07
      ],
      "type": "VEC2"
    },
    {
      "bufferView": 0,
      "byteOffset": 190464,
      "componentType": 5125,
      "count": 47616,
      "type": "SCALAR"
    },
    {
      "bufferView": 2,
      "byteOffset": 413664,
      "componentType": 5126,
      "count": 8618,
      "max": [
        0.9872313737869263,
        0.997577428817749,
        0.9872314929962158
      ],
      "min": [
        -0.9872310161590576,
        -0.997577428817749,
        -0.9872310161590576
      ],
      "type": "VEC3"
    },
    {
      "bufferView": 2,
      "byteOffset": 517080,
      "componentType": 5126,
      "count": 8618,
      "max": [
        1.0,
        1.0,
        1.0
      ],
      "min": [
        -1.0,
        -1.0,
        -1.0
      ],
      "type": "VEC3"
    },
    {
      "bufferView": 1,
      "byteOffset": 137888,
      "componentType": 5126,
      "count": 8618,
      "max": [
        1.0000003576278687,
        1.0
      ],
      "min": [
        0.0,
        -1.1920928955078125e-07
      ],
      "type": "VEC2"
    },
    {
      "bufferView": 0,
      "byteOffset": 380928,
      "componentType": 5125,
      "count": 47616,
      "type": "SCALAR"
    },
    {
      "bufferView": 2,
      "byteOffset": 620496,
      "componentType": 5126,
      "count": 8618,
      "max": [
        0.9872313737869263,
        0.997577428817749,
        0.9872314929962158
      ],
      "min": [
        -0.9872310161590576,
        -0.997577428817749,
        -0.9872310161590576
      ],
      "type": "VEC3"
    },
    {
      "bufferView": 2,
      "byteOffset": 723912,
      "componentType": 5126,
      "count": 8618,
      "max": [
        1.0,
        1.0,
        1.0
      ],
      "min": [
        -1.0,
        -1.0,
        -1.0
      ],
      "type": "VEC3"
    },
    {
      "bufferView": 1,
      "byteOffset": 206832,
      "componentType": 5126,
      "count": 8618,
      "max": [
        1.0000003576278687,
        1.0
      ],
      "min": [
        0.0,
        -1.1920928955078125e-07
      ],
      "type": "VEC2"
    },
    {
      "bufferView": 0,
      "byteOffset": 571392,
      "componentType": 5125,
      "count": 47616,
      "type": "SCALAR"
    },
    {
      "bufferView": 4,
      "componentType": 5126,
      "count": 2880,
      "max": [
        120.0
      ],
      "min": [
        0.0416666679084301
      ],
      "type": "SCALAR"
    },
    {
      "bufferView": 5,
      "componentType": 5126,
      "count": 2880,
      "max": [
        0.0,
        0.9999998807907104,
        -0.0,
        1.0
      ],
      "min": [
        0.0,
        -0.9999462962150574,
        -0.0,
        -0.009275227785110474
      ],
      "type": "VEC4"
    },
    {
      "bufferView": 4,
      "byteOffset": 11520,
      "componentType": 5126,
      "count": 2881,
      "max": [
        120.0
      ],
      "min": [
        0.0
      ],
      "type": "SCALAR"
    },
    {
      "bufferView": 5,
      "byteOffset": 46080,
      "componentType": 5126,
      "count": 2881,
      "max": [
        0.0,
        1.0,
        -0.0,
        1.0
      ],
      "min": [
        0.0,
        -0.9999370574951172,
        -0.0,
        -0.008819477632641792
      ],
      "type": "VEC4"
    },
    {
      "bufferView": 4,
      "byteOffset": 23044,
      "componentType": 5126,
      "count": 2881,
      "max": [
        120.0
      ],
      "min": [
        0.0
      ],
      "type": "SCALAR"
    },
    {
      "bufferView": 5,
      "byteOffset": 92176,
      "componentType": 5126,
      "count": 2881,
      "max": [
        0.0,
        0.9999998807907104,
        -0.0,
        1.0
      ],
      "min": [
        0.0,
        -0.9999371767044067,
        -0.0,
        -0.00998254306614399
      ],
      "type": "VEC4"
    },
    {
      "bufferView": 4,
      "byteOffset": 34568,
      "componentType": 5126,
      "count": 2881,
      "max": [
        120.0
      ],
      "min": [
        0.0
      ],
      "type": "SCALAR"
    },
    {
      "bufferView": 5,
      "byteOffset": 138272,
      "componentType": 5126,
      "count": 2881,
      "max": [
        0.0,
        0.9980263710021973,
        -0.0,
        1.0
      ],
      "min": [
        0.0,
        -0.9985324144363403,
        -0.0,
        0.05415859818458557
      ],
      "type": "VEC4"
    },
    {
      "bufferView": 4,
      "byteOffset": 46092,
      "componentType": 5126,
      "count": 2881,
      "max": [
        120.0
      ],
      "min": [
        0.0
      ],
      "type": "SCALAR"
    },
    {
      "bufferView": 5,
      "byteOffset": 184368,
      "componentType": 5126,
      "count": 2881,
      "max": [
        0.33781662583351135,
        0.9396927356719971,
        8.07722972240299e-06,
        0.9396926164627075
      ],
      "min": [
        -0.3420201539993286,
        -0.9281435608863831,
        -0.342020183801651,
        -2.2191998141352087e-05
      ],
      "type": "VEC4"
    }
  ],
  "animations": [
    {
      "channels": [
        {
          "sampler": 0,
          "target": {
            "node": 5,
            "path": "rotation"
          }
        },
        {
          "sampler": 1,
          "target": {
            "node": 7,
            "path": "rotation"
          }
        },
        {
          "sampler": 2,
          "target": {
            "node": 8,
            "path": "rotation"
          }
        },
        {
          "sampler": 3,
          "target": {
            "node": 14,
            "path": "rotation"
          }
        },
        {
          "sampler": 4,
          "target": {
            "node": 11,
            "path": "rotation"
          }
        }
      ],
      "name": "Orbit",
      "samplers": [
        {
          "input": 17,
          "interpolation": "LINEAR",
          "output": 18
        },
        {
          "input": 19,
          "interpolation": "LINEAR",
          "output": 20
        },
        {
          "input": 21,
          "interpolation": "LINEAR",
          "output": 22
        },
        {
          "input": 23,
          "interpolation": "LINEAR",
          "output": 24
        },
        {
          "input": 25,
          "interpolation": "LINEAR",
          "output": 26
        }
      ]
    }
  ],
  "asset": {
    "extras": {
      "author": "pergamond (https://sketchfab.com/pergamond)",
      "license": "CC-BY-4.0 (http://creativecommons.org/licenses/by/4.0/)",
      "source": "https://sketchfab.com/3d-models/kepler-1625-planetary-system-0423e47bae9943b9ac983354446b4dea",
      "title": "Kepler-1625 planetary system"
    },
    "generator": "Sketchfab-12.66.0",
    "version": "2.0"
  },
  "bufferViews": [
    {
      "buffer": 0,
      "byteLength": 761856,
      "name": "floatBufferViews",
      "target": 34963
    },
    {
      "buffer": 0,
      "byteLength": 275776,
      "byteOffset": 761856,
      "byteStride": 8,
      "name": "floatBufferViews",
      "target": 34962
    },
    {
      "buffer": 0,
      "byteLength": 827328,
      "byteOffset": 1037632,
      "byteStride": 12,
      "name": "floatBufferViews",
      "target": 34962
    },
    {
      "buffer": 0,
      "byteLength": 137888,
      "byteOffset": 1864960,
      "byteStride": 16,
      "name": "floatBufferViews",
      "target": 34962
    },
    {
      "buffer": 0,
      "byteLength": 57616,
      "byteOffset": 2002848,
      "name": "floatBufferViews"
    },
    {
      "buffer": 0,
      "byteLength": 230464,
      "byteOffset": 2060464,
      "byteStride": 16,
      "name": "floatBufferViews"
    }
  ],
  "buffers": [
    {
      "byteLength": 2290928,
      "uri": "scene.bin"
    }
  ],
  "images": [
    {
      "uri": "textures/Submoon_material_normal.png"
    },
    {
      "uri": "textures/Moon_material_baseColor.png"
    },
    {
      "uri": "textures/Planet_Material_baseColor.png"
    }
  ],
  "materials": [
    {
      "doubleSided": true,
      "emissiveFactor": [
        1.0,
        0.755962,
        0.373986
      ],
      "name": "Star_material",
      "pbrMetallicRoughness": {
        "baseColorFactor": [
          0.8,
          0.12049,
          0.0,
          1.0
        ],
        "metallicFactor": 0.0
      }
    },
    {
      "doubleSided": true,
      "name": "Submoon_material",
      "normalTexture": {
        "index": 0
      },
      "pbrMetallicRoughness": {
        "baseColorFactor": [
          0.501436,
          0.501436,
          0.501436,
          1.0
        ],
        "metallicFactor": 0.0
      }
    },
    {
      "doubleSided": true,
      "name": "Moon_material",
      "pbrMetallicRoughness": {
        "baseColorTexture": {
          "index": 1
        },
        "metallicFactor": 0.0,
        "roughnessFactor": 0.5
      }
    },
    {
      "doubleSided": true,
      "name": "Planet_Material",
      "pbrMetallicRoughness": {
        "baseColorTexture": {
          "index": 2
        },
        "metallicFactor": 0.0,
        "roughnessFactor": 0.5
      }
    }
  ],
  "meshes": [
    {
      "name": "Object_0",
      "primitives": [
        {
          "attributes": {
            "NORMAL": 1,
            "POSITION": 0,
            "TEXCOORD_0": 2
          },
          "indices": 3,
          "material": 0,
          "mode": 4
        }
      ]
    },
    {
      "name": "Object_1",
      "primitives": [
        {
          "attributes": {
            "NORMAL": 5,
            "POSITION": 4,
            "TANGENT": 6,
            "TEXCOORD_0": 7
          },
          "indices": 8,
          "material": 1,
          "mode": 4
        }
      ]
    },
    {
      "name": "Object_2",
      "primitives": [
        {
          "attributes": {
            "NORMAL": 10,
            "POSITION": 9,
            "TEXCOORD_0": 11
          },
          "indices": 12,
          "material": 2,
          "mode": 4
        }
      ]
    },
    {
      "name": "Object_3",
      "primitives": [
        {
          "attributes": {
            "NORMAL": 14,
            "POSITION": 13,
            "TEXCOORD_0": 15
          },
          "indices": 16,
          "material": 3,
          "mode": 4
        }
      ]
    }
  ],
  "nodes": [
    {
      "children": [
        1
      ],
      "matrix": [
        0.006997250951826572,
        0.0,
        0.0,
        0.0,
        0.0,
        1.5537018231596306e-18,
        -0.006997250951826572,
        0.0,
        0.0,
        0.006997250951826572,
        1.5537018231596306e-18,
        0.0,
        0.0,
        0.0,
        0.0,
        1.0
      ],
      "name": "Sketchfab_model"
    },
    {
      "children": [
        2
      ],
      "name": "root"
    },
    {
      "children": [
        3,
        5
      ],
      "matrix": [
        1.0,
        0.0,
        0.0,
        0.0,
        0.0,
        2.220446049250313e-16,
        1.0,
        0.0,
        0.0,
        -1.0,
        2.220446049250313e-16,
        0.0,
        0.0,
        0.0,
        0.0,
        1.0
      ],
      "name": "GLTF_SceneRootNode"
    },
    {
      "children": [
        4
      ],
      "matrix": [
        267.0,
        0.0,
        0.0,
        0.0,
        0.0,
        267.0,
        0.0,
        0.0,
        0.0,
        0.0,
        267.0,
        0.0,
        0.0,
        0.0,
        0.0,
        1.0
      ],
      "name": "Star_0"
    },
    {
      "mesh": 0,
      "name": "Object_4"
    },
    {
      "children": [
        6,
        14
      ],
      "name": "Star Empty_11",
      "scale": [
        340.4378967285156,
        340.4378967285156,
        340.4378967285156
      ]
    },
    {
      "children": [
        7
      ],
      "name": "Planet Inclined Empty_8",
      "rotation": [
        0.0,
        0.0,
        0.34202009439468384,
        0.9396926760673523
      ],
      "scale": [
        0.587478518486023,
        0.587478518486023,
        0.587478518486023
      ],
      "translation": [
        0.0,
        0.0,
        -9.763893127441406
      ]
    },
    {
      "children": [
        8,
        11
      ],
      "name": "Planet Empty_7",
      "scale": [
        0.9000000953674316,
        0.9000000953674316,
        0.9000001549720764
      ]
    },
    {
      "children": [
        9
      ],
      "name": "Moon Empty_4",
      "scale": [
        0.3333333134651184,
        0.3333333134651184,
        0.3333333134651184
      ],
      "translation": [
        3.5888891220092773,
        0.0,
        0.0
      ]
    },
    {
      "children": [
        10
      ],
      "matrix": [
        0.1666666865348816,
        0.0,
        0.0,
        0.0,
        0.0,
        0.1666666865348816,
        0.0,
        0.0,
        0.0,
        0.0,
        0.1666666567325592,
        0.0,
        0.0,
        0.0,
        -1.3499984741210938,
        1.0
      ],
      "name": "Submoon_3"
    },
    {
      "mesh": 1,
      "name": "Object_10"
    },
    {
      "children": [
        12
      ],
      "name": "Moon rotation empty_6",
      "rotation": [
        0.0,
        0.0,
        -0.3420201539993286,
        0.9396926760673523
      ],
      "scale": [
        0.32777777314186096,
        0.32777777314186096,
        0.3277777433395386
      ],
      "translation": [
        3.5888888835906982,
        0.0,
        0.0
      ]
    },
    {
      "children": [
        13
      ],
      "matrix": [
        0.9661017060279846,
        0.0,
        0.0,
        0.0,
        0.0,
        0.9661017060279846,
        0.0,
        0.0,
        0.0,
        0.0,
        0.9661017060279846,
        0.0,
        0.0,
        0.0,
        1.1444091796875e-05,
        1.0
      ],
      "name": "Moon_5"
    },
    {
      "mesh": 2,
      "name": "Object_13"
    },
    {
      "children": [
        15
      ],
      "name": "Planet rotation Empty_10",
      "scale": [
        0.49935677647590637,
        0.49935677647590637,
        0.49935677647590637
      ],
      "translation": [
        0.0,
        0.0,
        -9.763893127441406
      ]
    },
    {
      "children": [
        16
      ],
      "matrix": [
        0.33275603275113763,
        -0.5763506136350061,
        -0.6655123292742274,
        0.0,
        0.8150828513563091,
        0.47058815647081226,
        -5.525143061567285e-08,
        0.0,
        0.3327561204220361,
        -0.5763506092108225,
        0.6655122892702441,
        0.0,
        0.0,
        0.0,
        0.0,
        1.0
      ],
      "name": "Planet_9"
    },
    {
      "mesh": 3,
      "name": "Object_16"
    }
  ],
  "samplers": [
    {
      "magFilter": 9729,
      "minFilter": 9987,
      "wrapS": 10497,
      "wrapT": 10497
    }
  ],
  "scene": 0,
  "scenes": [
    {
      "name": "Sketchfab_Scene",
      "nodes": [
        0
      ]
    }
  ],
  "textures": [
    {
      "sampler": 0,
      "source": 0
    },
    {
      "sampler": 0,
      "source": 1
    },
    {
      "sampler": 0,
      "source": 2
    }
  ]
}
